<?xml version="1.0" encoding="utf-8"?>
<svg xmlns="http://www.w3.org/2000/svg" height="24" width="24" viewBox="0 0 24 24">
  <g>
    <path id="path1" transform="rotate(0,12,12) translate(1,4.17315328121185) scale(0.6875,0.6875)  " fill="#FFFFFF" d="M17.25992,7.545996C17.437922,7.545996 17.608921,7.6080077 17.74392,7.7200073 19.126911,8.6520151 19.97691,10.334999 19.968907,12.121012 19.95891,13.932019 19.075915,15.61601 17.66592,16.529004 17.530918,16.62602 17.376921,16.678024 17.21092,16.678024 16.775925,16.675002 16.425924,16.298017 16.428927,15.837018 16.452925,15.49101 16.606922,15.238996 16.839924,15.109022 17.802921,14.475994 18.388916,13.335002 18.394917,12.117014 18.401917,10.874002 17.813919,9.7139972 16.861923,9.0969919 16.558924,8.8299936 16.466925,8.6090158 16.469927,8.368995 16.469927,7.914008 16.825924,7.5400146 17.25992,7.545996z M21.8689,4.7800024C22.138899,4.7850073 22.4009,4.8760107 22.610897,5.0530132 24.725886,6.4750112 26.026882,9.0570138 26.01688,11.794016 25.999882,14.563 24.649889,17.142013 22.489897,18.536025 22.284899,18.68901 22.046902,18.766006 21.794899,18.766006 21.128903,18.764999 20.593905,18.184005 20.597906,17.478011 20.632906,16.953018 20.866905,16.565015 21.222904,16.365003 22.698898,15.396009 23.597893,13.650005 23.606892,11.780009 23.616894,9.8769916 22.718895,8.1030038 21.255903,7.1579951L21.191906,7.110998C21.136906,7.0790156 21.087906,7.0400141 21.044903,6.9899958 20.796908,6.7470148 20.654905,6.4079946 20.656908,6.0470017 20.656908,5.3429912 21.205906,4.7749976 21.8689,4.7800024z M25.050884,0.47698974C25.345886,0.47799703 25.614882,0.58300807 25.829882,0.7539983 29.544865,2.9620078 32.021858,7.0210017 31.999855,11.657999 31.976853,16.324994 29.423863,20.383012 25.644884,22.547016 25.438885,22.687 25.192886,22.770007 24.927889,22.769 24.23589,22.767017 23.677895,22.205005 23.683891,21.517017 23.725891,20.954027 24.013891,20.572007 24.411888,20.386003 27.470877,18.592025 29.491863,15.354993 29.511868,11.642008 29.528866,7.8869999 27.487875,4.5629919 24.447888,2.7959925 23.96689,2.444002 23.784891,2.092012 23.788893,1.7059946 23.790892,1.0270087 24.354889,0.47299211 25.050884,0.47698974z M13.917936,0L13.917936,22.267017 5.8989717,15.540998 0,15.540998 0,6.7259882 5.899975,6.7259882z" />
  </g>
</svg>
